<?xml version="1.0" encoding="UTF-8"?>
<!-- Created with Inkscape (http://www.inkscape.org/) -->
<svg id="svg8" width="112" height="112" version="1.1" viewBox="0 0 29.633 29.633" xml:space="preserve" xmlns="http://www.w3.org/2000/svg" xmlns:cc="http://creativecommons.org/ns#" xmlns:dc="http://purl.org/dc/elements/1.1/" xmlns:rdf="http://www.w3.org/1999/02/22-rdf-syntax-ns#"><metadata id="metadata5"><rdf:RDF><cc:Work rdf:about=""><dc:format>image/svg+xml</dc:format><dc:type rdf:resource="http://purl.org/dc/dcmitype/StillImage"/><dc:creator><cc:Agent><dc:title>Mirian Margiani</dc:title></cc:Agent></dc:creator><cc:license rdf:resource="http://creativecommons.org/licenses/by-sa/4.0/"/></cc:Work><cc:License rdf:about="http://creativecommons.org/licenses/by-sa/4.0/"><cc:permits rdf:resource="http://creativecommons.org/ns#Reproduction"/><cc:permits rdf:resource="http://creativecommons.org/ns#Distribution"/><cc:requires rdf:resource="http://creativecommons.org/ns#Notice"/><cc:requires rdf:resource="http://creativecommons.org/ns#Attribution"/><cc:permits rdf:resource="http://creativecommons.org/ns#DerivativeWorks"/><cc:requires rdf:resource="http://creativecommons.org/ns#ShareAlike"/></cc:License></rdf:RDF></metadata><g id="layer1"><path id="rect1" d="m6.2054 12.893v-4.6295c0-0.87948 0.70802-1.5875 1.5875-1.5875h15.4c0.87948 0 1.5875 0.70802 1.5875 1.5875v8.0614c0 0.87948-0.70802 1.5875-1.5875 1.5875h-12.444" fill="none" stroke="#fff" stroke-linejoin="round" stroke-width="1.0583"/><rect id="rect2" x="4.8525" y="13.422" width="5.3679" height="9.5353" ry=".66146" fill="none" stroke="#fff" stroke-linecap="round" stroke-linejoin="round" stroke-opacity=".65882" stroke-width="1.0583"/><rect id="rect3" x="-27.465" y="6.7223" width="18.575" height="11.236" rx="0" ry="1.5875" fill="none" stroke="#fff" stroke-linecap="round" stroke-linejoin="round" stroke-width="1.0583"/><rect id="rect5" x="-12.458" y="20.723" width="5.3679" height="9.5353" ry=".66146" fill="none" stroke="#fff" stroke-linecap="round" stroke-linejoin="round" stroke-opacity=".65882" stroke-width="1.0583"/><path id="path6" transform="matrix(.5029 0 0 .51382 -3.1262 7.6064)" d="m19.69 22.485c-0.32694-0.18876-0.32694-3.5864 0-3.7752s3.2694 1.5101 3.2694 1.8876-2.9425 2.0764-3.2694 1.8876z" fill="#fff" fill-opacity=".65882"/><path id="path7" transform="matrix(1.1117 0 0 1.1358 -8.0768 -11.101)" d="m19.69 22.485c-0.32694-0.18876-0.32694-3.5864 0-3.7752s3.2694 1.5101 3.2694 1.8876-2.9425 2.0764-3.2694 1.8876z" fill="#fff"/></g></svg>
